<svg xmlns="http://www.w3.org/2000/svg" viewBox="0 0 512 512">
  <rect width="512" height="512" rx="128" fill="#fffdfb"/>
  <circle cx="256" cy="256" r="190" fill="#faf4f1"/>
  <path d="M154 308c37 45 92 61 146 43 42-14 71-48 78-92 4-24-13-44-37-44-21 0-35 13-43 36-10 28-31 43-59 42-26-2-48-16-64-43-12-20-33-29-54-18-24 13-29 51-7 76z" fill="#8f4b5a"/>
  <path d="M173 184c38-41 101-49 149-19 16 10 28 23 38 39 8 14 3 31-11 39-14 8-31 4-40-10-12-20-32-31-57-31-24 0-43 9-58 27-10 12-28 14-40 3-13-11-14-35-1-48z" fill="#242124"/>
  <circle cx="346" cy="174" r="22" fill="#2f8c63"/>
</svg>
