<svg xmlns="http://www.w3.org/2000/svg" viewBox="0 0 512 512">
  <rect width="512" height="512" fill="#fffdfb"/>
  <circle cx="256" cy="256" r="208" fill="#faf4f1"/>
  <path d="M150 307c38 47 95 65 151 46 45-15 76-52 84-99 5-27-14-49-41-49-22 0-38 14-47 39-10 28-31 42-58 40-25-2-46-17-61-43-13-22-36-31-58-19-26 14-33 56-10 85z" fill="#8f4b5a"/>
  <path d="M171 177c40-43 106-52 157-20 17 10 31 25 41 42 9 15 4 34-12 43-15 9-34 4-43-12-13-21-34-33-61-33-25 0-45 10-61 29-11 14-31 16-44 4-14-12-15-38-1-53z" fill="#242124"/>
  <circle cx="350" cy="170" r="24" fill="#2f8c63"/>
</svg>
