<svg xmlns="http://www.w3.org/2000/svg" width="320" height="320" viewBox="0 0 128 128">
  <defs>
    <clipPath id="clip"><circle cx="64" cy="64" r="58"/></clipPath>
    <filter id="shadow" x="-10%" y="-10%" width="120%" height="120%"><feDropShadow dx="0" dy="1" stdDeviation="1.5" flood-color="#111111" flood-opacity=".12"/></filter>
  </defs>
  <rect width="128" height="128" fill="#ffffff"/>
  <circle cx="64" cy="64" r="58" fill="#ffffff" stroke="#6f819b" stroke-width="1.8" filter="url(#shadow)"/>
  <g clip-path="url(#clip)">
    <g >
      <path d="M57 12 C38 16 25 32 23 51 C22 69 28 87 35 105 C42 113 51 110 54 101 C48 80 47 65 50 50 C53 36 62 25 76 18 Z" fill="#f8f8f8" stroke="#9b9da0" stroke-width="1.6"/>
      <path d="M55 23 C47 31 43 43 42 56 C48 57 54 52 57 43 C60 35 62 28 55 23 Z" fill="#efefef" stroke="#babcc0" stroke-width="1.1"/>
      <path d="M39 60 C33 72 35 90 42 103" fill="none" stroke="#babcc0" stroke-width="1.2"/>
      <path d="M48 58 C44 74 45 88 50 100" fill="none" stroke="#c4c6c8" stroke-width="1.1"/>
      
    <path d="M41 28 C52 33 55 54 48 70 C43 82 34 83 30 72 C29 55 31 38 41 28 Z" fill="#d7352f" stroke="#9b1d1a" stroke-width="1.2" opacity="0.94"/>
    <path d="M39 34 C44 42 46 55 43 68" fill="none" stroke="#ffffff" stroke-width="1.6" stroke-linecap="round" opacity=".42"/>
<path d="M34 43 C39 51 40 62 37 73" fill="none" stroke="#ffffff" stroke-width="1.6" stroke-linecap="round" opacity=".42"/>
<path d="M47 39 C50 49 50 58 47 66" fill="none" stroke="#ffffff" stroke-width="1.6" stroke-linecap="round" opacity=".42"/>
  

    <path d="M34 71 C43 73 47 88 43 104 C39 110 32 108 29 101 C29 90 30 79 34 71 Z" fill="#d7352f" stroke="#9b1d1a" stroke-width="1.2" opacity="0.86"/>
    <path d="M35 77 C38 85 38 94 35 102" fill="none" stroke="#ffffff" stroke-width="1.6" stroke-linecap="round" opacity=".42"/>
  
    </g>
  </g>
  <circle cx="64" cy="64" r="58" fill="none" stroke="#6f819b" stroke-width="1.8"/>
</svg>
