<svg xmlns="http://www.w3.org/2000/svg" width="320" height="320" viewBox="0 0 128 128">
  <defs>
    <clipPath id="clip"><circle cx="64" cy="64" r="58"/></clipPath>
    <filter id="shadow" x="-10%" y="-10%" width="120%" height="120%"><feDropShadow dx="0" dy="1" stdDeviation="1.5" flood-color="#111111" flood-opacity=".12"/></filter>
  </defs>
  <rect width="128" height="128" fill="#ffffff"/>
  <circle cx="64" cy="64" r="58" fill="#ffffff" stroke="#6f819b" stroke-width="1.8" filter="url(#shadow)"/>
  <g clip-path="url(#clip)">
    <g opacity=".98">
      <path d="M62 16 C53 24 46 38 44 55 L43 95 C49 108 79 108 85 95 L84 55 C82 38 75 24 66 16 Z" fill="#f8f8f8" stroke="#9b9da0" stroke-width="1.6"/>
      <path d="M45 30 C33 35 27 45 25 62 L22 93 C27 98 36 96 39 88 L43 57" fill="#f3f3f3" stroke="#9b9da0" stroke-width="1.4"/>
      <path d="M83 57 L89 88 C92 96 101 98 106 93 L103 62 C101 45 95 35 83 30" fill="#f3f3f3" stroke="#9b9da0" stroke-width="1.4"/>
      <path d="M48 47 C58 42 70 42 80 47" fill="none" stroke="#b7b9bc" stroke-width="1.2"/>
      <path d="M50 56 C59 53 69 53 78 56" fill="none" stroke="#c7c9cb" stroke-width="1.1"/>
      <path d="M51 66 C60 63 68 63 77 66" fill="none" stroke="#d0d2d4" stroke-width="1.1"/>
      <path d="M52 76 C60 73 68 73 76 76" fill="none" stroke="#d0d2d4" stroke-width="1.1"/>
      <path d="M64 32 L64 96" fill="none" stroke="#d1d3d5" stroke-width="1.2"/>
      
    <path d="M54 19 C51 38 50 62 51 95" fill="none" stroke="#b8babd" stroke-width="4" stroke-linecap="round"/>
    <path d="M74 19 C77 38 78 62 77 95" fill="none" stroke="#b8babd" stroke-width="4" stroke-linecap="round"/>
    
    <path d="M55 23 C61 38 60 69 56 96 C51 79 50 43 55 23 Z" fill="#d7352f" stroke="#9b1d1a" stroke-width="1.2" opacity="0.94"/>
    <path d="M56 31 C57 49 57 72 55 90" fill="none" stroke="#ffffff" stroke-width="1.6" stroke-linecap="round" opacity=".42"/>
  

    <path d="M73 23 C67 38 68 69 72 96 C77 79 78 43 73 23 Z" fill="#d7352f" stroke="#9b1d1a" stroke-width="1.2" opacity="0.94"/>
    <path d="M72 31 C71 49 71 72 73 90" fill="none" stroke="#ffffff" stroke-width="1.6" stroke-linecap="round" opacity=".42"/>
  
  
    </g>
  </g>
  <circle cx="64" cy="64" r="58" fill="none" stroke="#6f819b" stroke-width="1.8"/>
</svg>
