<svg xmlns="http://www.w3.org/2000/svg" width="320" height="320" viewBox="0 0 128 128">
  <defs>
    <clipPath id="clip"><circle cx="64" cy="64" r="58"/></clipPath>
    <filter id="shadow" x="-10%" y="-10%" width="120%" height="120%"><feDropShadow dx="0" dy="1" stdDeviation="1.5" flood-color="#111111" flood-opacity=".12"/></filter>
  </defs>
  <rect width="128" height="128" fill="#ffffff"/>
  <circle cx="64" cy="64" r="58" fill="#ffffff" stroke="#6f819b" stroke-width="1.8" filter="url(#shadow)"/>
  <g clip-path="url(#clip)">
    <g opacity=".98">
      <path d="M62 16 C53 24 46 38 44 55 L43 95 C49 108 79 108 85 95 L84 55 C82 38 75 24 66 16 Z" fill="#f8f8f8" stroke="#9b9da0" stroke-width="1.6"/>
      <path d="M45 30 C33 35 27 45 25 62 L22 93 C27 98 36 96 39 88 L43 57" fill="#f3f3f3" stroke="#9b9da0" stroke-width="1.4"/>
      <path d="M83 57 L89 88 C92 96 101 98 106 93 L103 62 C101 45 95 35 83 30" fill="#f3f3f3" stroke="#9b9da0" stroke-width="1.4"/>
      <path d="M48 47 C58 42 70 42 80 47" fill="none" stroke="#b7b9bc" stroke-width="1.2"/>
      <path d="M50 56 C59 53 69 53 78 56" fill="none" stroke="#c7c9cb" stroke-width="1.1"/>
      <path d="M51 66 C60 63 68 63 77 66" fill="none" stroke="#d0d2d4" stroke-width="1.1"/>
      <path d="M52 76 C60 73 68 73 76 76" fill="none" stroke="#d0d2d4" stroke-width="1.1"/>
      <path d="M64 32 L64 96" fill="none" stroke="#d1d3d5" stroke-width="1.2"/>
      
    <path d="M50 62 C55 59 61 59 64 62 L63 75 C59 78 54 78 50 75 Z" fill="#d7352f" stroke="#9b1d1a" stroke-width="1.2" opacity="0.78"/>
    
  

    <path d="M65 62 C68 59 74 59 78 62 L78 75 C74 78 69 78 65 75 Z" fill="#d7352f" stroke="#9b1d1a" stroke-width="1.2" opacity="0.78"/>
    
  

    <path d="M52 76 C58 73 70 73 76 76 L72 98 C68 102 60 102 56 98 Z" fill="#d7352f" stroke="#9b1d1a" stroke-width="1.2" opacity="0.94"/>
    <path d="M64 76 L64 99" fill="none" stroke="#ffffff" stroke-width="1.6" stroke-linecap="round" opacity=".42"/>
<path d="M57 84 C62 88 67 88 72 84" fill="none" stroke="#ffffff" stroke-width="1.6" stroke-linecap="round" opacity=".42"/>
<path d="M58 93 C62 96 67 96 70 93" fill="none" stroke="#ffffff" stroke-width="1.6" stroke-linecap="round" opacity=".42"/>
  
    </g>
  </g>
  <circle cx="64" cy="64" r="58" fill="none" stroke="#6f819b" stroke-width="1.8"/>
</svg>
