<svg xmlns="http://www.w3.org/2000/svg" width="320" height="320" viewBox="0 0 128 128">
  <defs>
    <clipPath id="clip"><circle cx="64" cy="64" r="58"/></clipPath>
    <filter id="shadow" x="-10%" y="-10%" width="120%" height="120%"><feDropShadow dx="0" dy="1" stdDeviation="1.5" flood-color="#111111" flood-opacity=".12"/></filter>
  </defs>
  <rect width="128" height="128" fill="#ffffff"/>
  <circle cx="64" cy="64" r="58" fill="#ffffff" stroke="#6f819b" stroke-width="1.8" filter="url(#shadow)"/>
  <g clip-path="url(#clip)">
    <g>
      <path d="M64 26 C51 11 28 22 30 44 C32 65 51 80 64 91 C77 80 96 65 98 44 C100 22 77 11 64 26 Z" fill="#f6f6f6" stroke="#9b9da0" stroke-width="1.8"/>
      <path d="M35 67 C49 81 58 88 64 94 C70 88 79 81 93 67" fill="none" stroke="#c9cbce" stroke-width="1.2"/>
      
    <path d="M42 58 C50 64 58 65 64 58 C70 65 78 64 86 58" fill="none" stroke="#007d48" stroke-width="5" stroke-linecap="round" opacity=".9"/>
    <path d="M45 42 C55 32 73 32 83 42" fill="none" stroke="#007d48" stroke-width="4" stroke-linecap="round" opacity=".72"/>
    <path d="M39 79 C51 89 77 89 89 79" fill="none" stroke="#007d48" stroke-width="4" stroke-linecap="round" opacity=".68"/>
    <circle cx="64" cy="58" r="10" fill="#007d48" opacity=".18"/>
  
    </g>
  </g>
  <circle cx="64" cy="64" r="58" fill="none" stroke="#6f819b" stroke-width="1.8"/>
</svg>
