<svg xmlns="http://www.w3.org/2000/svg" width="320" height="320" viewBox="0 0 128 128">
  <defs>
    <clipPath id="clip"><circle cx="64" cy="64" r="58"/></clipPath>
    <filter id="shadow" x="-10%" y="-10%" width="120%" height="120%"><feDropShadow dx="0" dy="1" stdDeviation="1.5" flood-color="#111111" flood-opacity=".12"/></filter>
  </defs>
  <rect width="128" height="128" fill="#ffffff"/>
  <circle cx="64" cy="64" r="58" fill="#ffffff" stroke="#6f819b" stroke-width="1.8" filter="url(#shadow)"/>
  <g clip-path="url(#clip)">
    <g opacity=".98">
      <path d="M62 16 C53 24 46 38 44 55 L43 95 C49 108 79 108 85 95 L84 55 C82 38 75 24 66 16 Z" fill="#f8f8f8" stroke="#9b9da0" stroke-width="1.6"/>
      <path d="M45 30 C33 35 27 45 25 62 L22 93 C27 98 36 96 39 88 L43 57" fill="#f3f3f3" stroke="#9b9da0" stroke-width="1.4"/>
      <path d="M83 57 L89 88 C92 96 101 98 106 93 L103 62 C101 45 95 35 83 30" fill="#f3f3f3" stroke="#9b9da0" stroke-width="1.4"/>
      <path d="M48 47 C58 42 70 42 80 47" fill="none" stroke="#b7b9bc" stroke-width="1.2"/>
      <path d="M50 56 C59 53 69 53 78 56" fill="none" stroke="#c7c9cb" stroke-width="1.1"/>
      <path d="M51 66 C60 63 68 63 77 66" fill="none" stroke="#d0d2d4" stroke-width="1.1"/>
      <path d="M52 76 C60 73 68 73 76 76" fill="none" stroke="#d0d2d4" stroke-width="1.1"/>
      <path d="M64 32 L64 96" fill="none" stroke="#d1d3d5" stroke-width="1.2"/>
      
    <path d="M51 40 C55 37 61 37 63 40 L62 50 C58 52 54 52 51 50 Z" fill="#d7352f" stroke="#9b1d1a" stroke-width="1.2" opacity="0.94"/>
    <path d="M57 39 L57 51" fill="none" stroke="#ffffff" stroke-width="1.6" stroke-linecap="round" opacity=".42"/>
  

    <path d="M65 40 C67 37 73 37 77 40 L77 50 C74 52 70 52 66 50 Z" fill="#d7352f" stroke="#9b1d1a" stroke-width="1.2" opacity="0.94"/>
    <path d="M71 39 L71 51" fill="none" stroke="#ffffff" stroke-width="1.6" stroke-linecap="round" opacity=".42"/>
  

    <path d="M51 53 C55 51 61 51 63 53 L62 64 C58 66 54 66 51 64 Z" fill="#d7352f" stroke="#9b1d1a" stroke-width="1.2" opacity="0.94"/>
    
  

    <path d="M66 53 C70 51 74 51 77 53 L77 64 C74 66 70 66 66 64 Z" fill="#d7352f" stroke="#9b1d1a" stroke-width="1.2" opacity="0.94"/>
    
  

    <path d="M52 67 C56 65 60 65 62 67 L61 80 C58 82 55 82 52 80 Z" fill="#d7352f" stroke="#9b1d1a" stroke-width="1.2" opacity="0.94"/>
    
  

    <path d="M67 67 C70 65 74 65 76 67 L76 80 C73 82 70 82 67 80 Z" fill="#d7352f" stroke="#9b1d1a" stroke-width="1.2" opacity="0.94"/>
    
  

    <path d="M55 83 C59 81 69 81 73 83 L70 98 C66 101 62 101 58 98 Z" fill="#d7352f" stroke="#9b1d1a" stroke-width="1.2" opacity="0.9"/>
    
  
    </g>
  </g>
  <circle cx="64" cy="64" r="58" fill="none" stroke="#6f819b" stroke-width="1.8"/>
</svg>
