<svg xmlns="http://www.w3.org/2000/svg" width="320" height="320" viewBox="0 0 128 128">
  <defs>
    <clipPath id="clip"><circle cx="64" cy="64" r="58"/></clipPath>
    <filter id="shadow" x="-10%" y="-10%" width="120%" height="120%"><feDropShadow dx="0" dy="1" stdDeviation="1.5" flood-color="#111111" flood-opacity=".12"/></filter>
  </defs>
  <rect width="128" height="128" fill="#ffffff"/>
  <circle cx="64" cy="64" r="58" fill="#ffffff" stroke="#6f819b" stroke-width="1.8" filter="url(#shadow)"/>
  <g clip-path="url(#clip)">
    <g transform="translate(128 0) scale(-1 1)">
      <path d="M57 12 C38 16 25 32 23 51 C22 69 28 87 35 105 C42 113 51 110 54 101 C48 80 47 65 50 50 C53 36 62 25 76 18 Z" fill="#f8f8f8" stroke="#9b9da0" stroke-width="1.6"/>
      <path d="M55 23 C47 31 43 43 42 56 C48 57 54 52 57 43 C60 35 62 28 55 23 Z" fill="#efefef" stroke="#babcc0" stroke-width="1.1"/>
      <path d="M39 60 C33 72 35 90 42 103" fill="none" stroke="#babcc0" stroke-width="1.2"/>
      <path d="M48 58 C44 74 45 88 50 100" fill="none" stroke="#c4c6c8" stroke-width="1.1"/>
      
    <path d="M30 33 C40 30 48 42 49 58 C49 75 43 86 34 84 C27 72 24 47 30 33 Z" fill="#d7352f" stroke="#9b1d1a" stroke-width="1.2" opacity="0.94"/>
    <path d="M32 39 C36 50 37 65 34 78" fill="none" stroke="#ffffff" stroke-width="1.6" stroke-linecap="round" opacity=".42"/>
<path d="M40 42 C44 53 44 67 39 80" fill="none" stroke="#ffffff" stroke-width="1.6" stroke-linecap="round" opacity=".42"/>
  

    <path d="M45 60 C52 68 55 89 50 103 C45 111 38 107 38 97 C41 83 42 70 45 60 Z" fill="#d7352f" stroke="#9b1d1a" stroke-width="1.2" opacity="0.84"/>
    <path d="M46 68 C49 79 48 91 45 101" fill="none" stroke="#ffffff" stroke-width="1.6" stroke-linecap="round" opacity=".42"/>
  
    </g>
  </g>
  <circle cx="64" cy="64" r="58" fill="none" stroke="#6f819b" stroke-width="1.8"/>
</svg>
